<svg width="1054" height="241" fill="none" xmlns="http://www.w3.org/2000/svg"><path d="M261.884 179.318c-2.935 0-5.225-.822-6.869-2.465-1.526-1.644-2.29-3.934-2.29-6.869V62.019c0-3.053.764-5.343 2.29-6.869 1.644-1.644 3.934-2.466 6.869-2.466 2.935 0 5.166.822 6.693 2.466 1.644 1.526 2.466 3.816 2.466 6.869v45.44h69.569v-45.44c0-3.053.763-5.343 2.29-6.869 1.643-1.644 3.933-2.466 6.869-2.466 2.935 0 5.166.822 6.692 2.466 1.527 1.526 2.29 3.816 2.29 6.869v107.965c0 2.935-.763 5.225-2.29 6.869-1.526 1.643-3.757 2.465-6.692 2.465-2.936 0-5.226-.822-6.869-2.465-1.527-1.644-2.29-3.934-2.29-6.869v-47.202h-69.569v47.202c0 2.935-.764 5.225-2.29 6.869-1.527 1.643-3.816 2.465-6.869 2.465Zm132.728-.176c-2.818 0-4.99-.822-6.516-2.466-1.527-1.761-2.29-4.168-2.29-7.221v-68.689c0-3.052.763-5.4 2.29-7.045 1.526-1.643 3.698-2.465 6.516-2.465s4.991.822 6.517 2.465c1.644 1.644 2.466 3.993 2.466 7.045v68.689c0 3.053-.764 5.46-2.29 7.221-1.526 1.644-3.757 2.466-6.693 2.466Zm0-106.203c-3.522 0-6.282-.881-8.278-2.642-1.878-1.761-2.818-4.227-2.818-7.397 0-3.288.94-5.754 2.818-7.398 1.996-1.761 4.756-2.642 8.278-2.642 3.523 0 6.223.881 8.102 2.642 1.996 1.644 2.994 4.11 2.994 7.398 0 3.17-.998 5.636-2.994 7.397-1.879 1.761-4.579 2.642-8.102 2.642Zm72.945 138.434c-6.34 0-12.505-.646-18.493-1.937-5.871-1.292-11.213-3.405-16.027-6.341-1.762-.939-2.936-2.113-3.523-3.522a6.856 6.856 0 0 1-.528-4.051 8.633 8.633 0 0 1 1.937-3.699c.939-1.057 2.055-1.761 3.346-2.113 1.409-.353 2.877-.118 4.404.704 5.166 2.818 10.039 4.697 14.618 5.636 4.697 1.057 9.041 1.585 13.033 1.585 8.219 0 14.384-2.113 18.493-6.34 4.11-4.11 6.165-10.215 6.165-18.317v-17.965h1.585c-1.761 6.458-5.46 11.566-11.096 15.323-5.636 3.757-12.153 5.636-19.55 5.636-7.749 0-14.501-1.761-20.254-5.284-5.754-3.64-10.216-8.63-13.386-14.97-3.17-6.458-4.755-13.973-4.755-22.545 0-6.457.88-12.27 2.642-17.436 1.878-5.166 4.461-9.628 7.749-13.385 3.405-3.758 7.456-6.635 12.153-8.63 4.814-2.114 10.098-3.17 15.851-3.17 7.515 0 14.031 1.878 19.55 5.635 5.636 3.758 9.276 8.865 10.92 15.323l-1.762 2.994V99.886c0-2.936.764-5.166 2.29-6.693 1.644-1.526 3.816-2.29 6.517-2.29 2.818 0 4.99.764 6.516 2.29 1.527 1.526 2.29 3.757 2.29 6.693v70.978c0 13.386-3.464 23.484-10.391 30.294-6.928 6.81-17.026 10.215-30.294 10.215Zm-1.409-49.315c5.166 0 9.57-1.174 13.209-3.522 3.64-2.349 6.458-5.695 8.454-10.04 1.997-4.344 2.995-9.452 2.995-15.323 0-8.806-2.231-15.792-6.693-20.958-4.345-5.167-10.333-7.75-17.965-7.75-5.049 0-9.393 1.174-13.033 3.523-3.64 2.348-6.517 5.694-8.63 10.039-1.996 4.227-2.994 9.276-2.994 15.146 0 8.924 2.23 15.969 6.692 21.136 4.462 5.166 10.45 7.749 17.965 7.749Zm75.866 17.26c-2.818 0-4.99-.763-6.517-2.289-1.526-1.644-2.289-3.875-2.289-6.693V61.666c0-2.935.763-5.166 2.289-6.692 1.527-1.527 3.699-2.29 6.517-2.29 2.818 0 4.99.763 6.517 2.29 1.644 1.526 2.465 3.757 2.465 6.693v48.786h-2.465c2.583-6.575 6.634-11.507 12.152-14.794 5.519-3.405 11.859-5.108 19.022-5.108 6.81 0 12.446 1.292 16.908 3.875 4.579 2.466 7.984 6.282 10.215 11.448 2.231 5.049 3.347 11.448 3.347 19.198v45.264c0 2.818-.764 5.049-2.29 6.693-1.527 1.526-3.699 2.289-6.517 2.289-2.935 0-5.166-.763-6.692-2.289-1.527-1.644-2.29-3.875-2.29-6.693v-44.208c0-7.397-1.468-12.798-4.403-16.203-2.818-3.405-7.28-5.108-13.386-5.108-7.162 0-12.916 2.231-17.26 6.693-4.227 4.462-6.341 10.45-6.341 17.965v40.861c0 5.988-2.994 8.982-8.982 8.982Zm120.324.353c-9.159 0-16.086-2.642-20.783-7.926-4.579-5.401-6.869-13.151-6.869-23.249v-86.83c0-2.935.763-5.166 2.29-6.692 1.526-1.527 3.698-2.29 6.516-2.29 2.819 0 4.991.763 6.517 2.29 1.644 1.526 2.466 3.757 2.466 6.693v85.773c0 5.87 1.174 10.274 3.522 13.209 2.466 2.818 5.989 4.227 10.568 4.227h2.818l2.466-.352c1.409-.118 2.407.293 2.994 1.233.587.822.88 2.583.88 5.283 0 2.466-.528 4.404-1.585 5.813-1.056 1.291-2.759 2.113-5.107 2.465a30.207 30.207 0 0 1-3.347.176 33.513 33.513 0 0 1-3.346.177Zm65.656 0c-9.393 0-17.495-1.762-24.305-5.284-6.693-3.64-11.918-8.748-15.675-15.323-3.64-6.693-5.46-14.618-5.46-23.777 0-8.924 1.82-16.732 5.46-23.425 3.64-6.692 8.63-11.917 14.97-15.675 6.341-3.757 13.562-5.636 21.664-5.636 5.988 0 11.33.998 16.027 2.994 4.697 1.879 8.689 4.697 11.977 8.454 3.405 3.64 5.929 8.102 7.573 13.386 1.761 5.284 2.642 11.213 2.642 17.788 0 1.997-.587 3.523-1.761 4.58-1.174.939-2.936 1.409-5.284 1.409h-59.178v-10.92h54.246l-2.994 2.466c0-5.871-.88-10.861-2.642-14.971-1.643-4.11-4.168-7.221-7.573-9.335-3.288-2.23-7.397-3.346-12.329-3.346-5.518 0-10.215 1.292-14.09 3.875-3.757 2.583-6.634 6.164-8.63 10.743-1.996 4.58-2.994 9.922-2.994 16.028v1.057c0 10.332 2.407 18.141 7.221 23.424 4.932 5.167 12.035 7.75 21.311 7.75 3.523 0 7.221-.47 11.096-1.409a36.617 36.617 0 0 0 11.272-4.756c1.996-1.174 3.757-1.702 5.284-1.585 1.644.118 2.935.646 3.875 1.585 1.056.94 1.702 2.114 1.937 3.523.235 1.409 0 2.877-.704 4.403-.705 1.409-1.938 2.701-3.699 3.875-3.992 2.7-8.63 4.755-13.914 6.164-5.284 1.292-10.391 1.938-15.323 1.938Zm81.742 0c-5.989 0-11.39-1.175-16.204-3.523-4.697-2.348-8.395-5.519-11.096-9.511-2.7-3.992-4.051-8.512-4.051-13.561 0-6.341 1.585-11.331 4.756-14.971 3.287-3.757 8.63-6.399 16.027-7.926 7.515-1.643 17.613-2.465 30.294-2.465h8.277v10.919h-8.101c-8.454 0-15.147.411-20.079 1.233-4.931.822-8.454 2.231-10.567 4.227-1.996 1.879-2.994 4.521-2.994 7.926 0 4.462 1.526 8.102 4.579 10.92 3.053 2.7 7.28 4.051 12.681 4.051 4.344 0 8.16-.998 11.448-2.995 3.288-2.113 5.871-4.931 7.75-8.454 1.996-3.522 2.994-7.573 2.994-12.152v-20.255c0-6.692-1.409-11.507-4.227-14.442-2.818-2.935-7.456-4.403-13.914-4.403-3.757 0-7.691.47-11.8 1.409-3.993.939-8.161 2.524-12.505 4.755-1.996.94-3.699 1.233-5.108.881-1.409-.352-2.524-1.116-3.346-2.29-.822-1.291-1.292-2.642-1.409-4.051 0-1.526.352-2.994 1.056-4.403.822-1.409 2.173-2.465 4.051-3.17 5.167-2.466 10.274-4.227 15.323-5.284 5.049-1.056 9.804-1.585 14.266-1.585 7.867 0 14.325 1.233 19.374 3.699 5.166 2.466 8.982 6.223 11.448 11.272 2.466 5.049 3.699 11.565 3.699 19.55v45.264c0 2.818-.705 5.049-2.114 6.693-1.409 1.526-3.463 2.289-6.164 2.289-2.583 0-4.638-.763-6.164-2.289-1.527-1.644-2.29-3.875-2.29-6.693v-11.448h1.585c-.939 4.344-2.701 8.102-5.284 11.272-2.465 3.053-5.577 5.401-9.334 7.045-3.758 1.644-8.043 2.466-12.857 2.466Zm99.882 0c-7.515 0-14.149-1.762-19.902-5.284-5.636-3.64-10.039-8.806-13.21-15.499-3.17-6.81-4.755-14.736-4.755-23.777 0-9.276 1.585-17.202 4.755-23.777 3.171-6.575 7.574-11.683 13.21-15.323 5.753-3.64 12.387-5.46 19.902-5.46 7.515 0 13.972 1.879 19.374 5.636 5.518 3.64 9.217 8.572 11.096 14.795h-1.938V61.667c0-2.936.763-5.167 2.29-6.693 1.526-1.527 3.698-2.29 6.516-2.29s4.991.763 6.517 2.29c1.644 1.526 2.466 3.757 2.466 6.693v108.669c0 2.818-.763 5.049-2.29 6.693-1.526 1.526-3.698 2.289-6.516 2.289s-4.991-.763-6.517-2.289c-1.527-1.644-2.29-3.875-2.29-6.693v-15.499l1.938 3.875c-1.879 6.34-5.578 11.448-11.096 15.323-5.401 3.757-11.918 5.636-19.55 5.636Zm4.579-13.738c4.814 0 9.041-1.174 12.681-3.523 3.64-2.348 6.458-5.812 8.454-10.391 2.114-4.579 3.17-10.215 3.17-16.908 0-10.098-2.231-17.73-6.692-22.896-4.462-5.167-10.333-7.75-17.613-7.75-4.931 0-9.217 1.174-12.857 3.523-3.64 2.23-6.517 5.636-8.63 10.215-1.996 4.579-2.994 10.215-2.994 16.908 0 9.98 2.231 17.612 6.692 22.896 4.462 5.284 10.392 7.926 17.789 7.926Zm96.833 13.738c-5.16 0-10.5-.588-16.023-1.762-5.401-1.174-10.391-3.17-14.971-5.988-1.526-1.057-2.583-2.231-3.17-3.522-.587-1.292-.822-2.584-.704-3.875.234-1.409.763-2.583 1.585-3.523.939-1.056 2.054-1.702 3.346-1.937 1.409-.235 2.877.059 4.403.881 4.579 2.583 8.983 4.403 13.21 5.459 4.224.94 8.394 1.409 12.504 1.409 6.22 0 10.92-1.115 14.09-3.346s4.76-5.225 4.76-8.982c0-3.053-1.06-5.402-3.17-7.045-2.12-1.762-5.29-3.112-9.52-4.051l-16.73-3.347c-7.277-1.526-12.795-4.227-16.553-8.101-3.757-3.875-5.636-8.807-5.636-14.795 0-5.401 1.468-10.098 4.403-14.09 2.936-3.992 7.045-7.045 12.329-9.158 5.287-2.231 11.387-3.347 18.317-3.347 5.17 0 10.04.646 14.62 1.938a44.519 44.519 0 0 1 12.68 5.812c1.53.822 2.52 1.937 2.99 3.346.47 1.292.53 2.583.18 3.875-.24 1.291-.82 2.466-1.76 3.522-.94.94-2.11 1.527-3.52 1.762-1.3.117-2.76-.235-4.41-1.057-3.52-2.231-7.04-3.816-10.56-4.756-3.41-.939-6.81-1.409-10.22-1.409-6.22 0-10.92 1.175-14.09 3.523-3.053 2.231-4.579 5.284-4.579 9.158 0 2.936.939 5.343 2.818 7.222 1.879 1.878 4.811 3.229 8.811 4.05l16.73 3.347c7.63 1.526 13.38 4.109 17.26 7.749 3.99 3.64 5.99 8.572 5.99 14.795 0 8.102-3.23 14.501-9.69 19.198-6.46 4.696-15.03 7.045-25.72 7.045Z" fill="#1B1618"/><path d="M169.537 185.314c-9.593-.126-15.532-4.4-17.303-6.522 2.472 5.681 4.997 10.361 4.997 27.086 9.34-3.072 22.562-14.726 27.769-25.981-5.417 5.417-15.41 5.417-15.463 5.417Z" fill="#211D1F"/><path d="M187.155 134.667c-33.343-11.202-46.229 16.093-47.123 26.98 3.471 2.209 9.593 11.171 12.202 17.145 5.417 6.522 23.141 9.993 32.765 1.105 1.052-2.419 10.834-20.406 2.156-45.23Z" fill="#E0DCDF"/><path d="M126.043 151.023c1.473.421 10.413 6.574 13.99 10.624 2.892-19.459 20.458-36.458 47.123-27.033-4.155-8.467-5.68-10.15-8.52-14.042-12.728 7.311-26.034 5.733-35.711-2.682 9.414 17.408-2.998 32.292-16.882 33.133Z" fill="#BFBFBD"/><path d="M94.382 35.477c63.374 6.942 89.881 52.014 84.254 85.095C138.455 38.106 64.877 24.958 22.225 72.029c23.014-31.64 55.432-37.341 72.157-36.552Z" fill="url(#a)"/><path d="M142.925 117.89c9.414 17.408-2.998 32.292-16.882 33.133-5.417-2.682-27.086-6.153-36.71-31.555-2.314-6.89-5.049-16.251-8.31-18.618-9.76-44.81-46.386-39.34-58.798-28.821 42.652-47.07 116.23-33.922 156.411 48.543-12.728 7.311-26.034 5.733-35.711-2.682Z" fill="url(#b)"/><path d="M5.974 131.67c-3.103-28.085 9.519-50.91 16.25-59.64 13.128-6.017 26.28-1.298 31.188 1.787-56.484 26.402-12.99 117.606 78.153 125.487-63.637 30.872-120.001-17.04-125.591-67.634Z" fill="url(#c)"/><path d="M66.876 95.906c-1.683-11.833-6.68-17.776-13.464-22.141-62.848 30.135-1.788 123.751 78.311 125.381-23.036-21.616-78.416-65.846-81.045-74.472-7.942-19.827 6.994-28.996 16.198-28.768Z" fill="url(#d)"/><circle cx="156.072" cy="101.691" r="12.412" fill="#000"/><g filter="url(#e)"><path d="M66.876 95.906C63.352 70.33 35.11 65.981 22.225 72.03c17.618-14.936 50.541-10.781 58.798 28.821-5.732-4.523-10.781-4.944-14.147-4.944Z" fill="#F95208"/></g><circle cx="151.762" cy="94.96" r="5.154" fill="#fff"/><g filter="url(#f)"><path d="M163.594 184.525c-4.586-.673-9.467-3.629-11.308-5.68-3.26-6.416-6.469-12.254-12.254-17.198.947-3.418.631-6.258 4.576-13.253 9.677 9.256 17.092 19.88 18.986 36.131Z" fill="#E0DCDF"/></g><defs><radialGradient id="a" cx="0" cy="0" r="1" gradientUnits="userSpaceOnUse" gradientTransform="matrix(-18.88095 27.76892 -51.24049 -34.84 134.615 26.273)"><stop stop-color="#F9A26F"/><stop offset="1" stop-color="#FF854D"/></radialGradient><radialGradient id="d" cx="0" cy="0" r="1" gradientUnits="userSpaceOnUse" gradientTransform="matrix(30.7142 128.85193 -107.17136 25.54625 48.89 99.798)"><stop stop-color="#F74703"/><stop offset="1" stop-color="#FE814B"/></radialGradient><linearGradient id="b" x1="134.615" y1="64.35" x2="86.177" y2="127.567" gradientUnits="userSpaceOnUse"><stop stop-color="#FF864F"/><stop offset="1" stop-color="#FF6825"/></linearGradient><linearGradient id="c" x1="30.219" y1="73.923" x2="99.379" y2="206.825" gradientUnits="userSpaceOnUse"><stop stop-color="#F7550C"/><stop offset="1" stop-color="#FF864F"/></linearGradient><filter id="e" x="20.647" y="64.058" width="60.377" height="38.37" filterUnits="userSpaceOnUse" color-interpolation-filters="sRGB"><feFlood flood-opacity="0" result="BackgroundImageFix"/><feBlend in="SourceGraphic" in2="BackgroundImageFix" result="shape"/><feColorMatrix in="SourceAlpha" values="0 0 0 0 0 0 0 0 0 0 0 0 0 0 0 0 0 0 127 0" result="hardAlpha"/><feOffset dx="-7.994" dy="5.89"/><feGaussianBlur stdDeviation=".789"/><feComposite in2="hardAlpha" operator="arithmetic" k2="-1" k3="1"/><feColorMatrix values="0 0 0 0 0.733333 0 0 0 0 0.231373 0 0 0 0 0.0156863 0 0 0 0.15 0"/><feBlend in2="shape" result="effect1_innerShadow_388_15522"/></filter><filter id="f" x="139.611" y="148.394" width="23.982" height="36.552" filterUnits="userSpaceOnUse" color-interpolation-filters="sRGB"><feFlood flood-opacity="0" result="BackgroundImageFix"/><feBlend in="SourceGraphic" in2="BackgroundImageFix" result="shape"/><feColorMatrix in="SourceAlpha" values="0 0 0 0 0 0 0 0 0 0 0 0 0 0 0 0 0 0 127 0" result="hardAlpha"/><feOffset dx="-17.461" dy=".421"/><feGaussianBlur stdDeviation=".21"/><feComposite in2="hardAlpha" operator="arithmetic" k2="-1" k3="1"/><feColorMatrix values="0 0 0 0 0 0 0 0 0 0 0 0 0 0 0 0 0 0 0.08 0"/><feBlend in2="shape" result="effect1_innerShadow_388_15522"/></filter></defs></svg>